<svg width="30" height="30" viewBox="0 0 30 30" fill="none" xmlns="http://www.w3.org/2000/svg">
<circle cx="15" cy="15" r="15" fill="#E4E4E4"/>
<path d="M15.8265 15.5451C15.8349 12.6435 13.5502 10.3255 10.682 10.3255C7.82203 10.3255 5.5124 12.6435 5.49572 15.5201C5.47905 18.38 7.81369 20.7397 10.657 20.748C13.5169 20.7564 15.8182 18.4384 15.8265 15.5451Z" fill="#0C0F13"/>
<path d="M21.5799 15.6108C21.5966 14.4185 21.4132 13.3345 20.9546 12.3006C20.7628 11.8671 20.496 11.4752 20.1541 11.15C19.4454 10.4746 18.5699 10.4746 17.8612 11.1583C17.2108 11.7837 16.8856 12.5674 16.6855 13.4096C16.2353 15.294 16.3186 17.145 17.1524 18.9293C17.3442 19.3379 17.611 19.6881 17.9446 19.9883C18.5949 20.5719 19.4371 20.5636 20.0874 19.9799C20.7878 19.3462 21.113 18.5124 21.3465 17.637C21.5299 16.9532 21.6049 16.2445 21.5799 15.6108Z" fill="#0C0F13"/>
<path d="M23.9979 15.8108C23.9979 14.2516 23.9479 12.9926 23.5643 11.7752C23.481 11.5167 23.4309 11.1665 23.0891 11.1749C22.7722 11.1749 22.7222 11.5167 22.6472 11.7585C22.297 12.8091 22.2303 13.9014 22.1969 15.002C22.1552 16.3611 22.2303 17.7202 22.5638 19.046C22.6138 19.2627 22.6972 19.4712 22.7972 19.663C22.9807 20.0132 23.2058 20.0132 23.4059 19.6796C23.581 19.3795 23.6727 19.046 23.7394 18.7041C23.9312 17.6452 24.0146 16.5862 23.9979 15.8108Z" fill="#0C0F13"/>
</svg>
