<svg width="30" height="30" viewBox="0 0 30 30" fill="none" xmlns="http://www.w3.org/2000/svg">
<circle cx="15" cy="15" r="15" fill="#E4E4E4"/>
<g clip-path="url(#clip0_1687_12)">
<path d="M22.9872 15.5701C22.9821 15.9895 22.9207 16.3985 22.8261 16.805C22.6446 17.5951 22.3506 18.3391 21.9415 19.0396C21.6833 19.4819 21.379 19.8885 21.0467 20.2796C20.6171 20.7808 20.1262 21.2128 19.5893 21.5912C19.1317 21.9159 18.6382 22.1844 18.1167 22.4017C17.6079 22.6165 17.0837 22.7725 16.5468 22.8824C16.2144 22.9514 15.8744 22.9693 15.5369 23C15.179 23 14.821 23 14.4631 23C14.3174 22.9744 14.1665 22.9872 14.0208 22.9693C13.443 22.9054 12.8805 22.775 12.3333 22.5807C11.528 22.2918 10.7788 21.8929 10.1013 21.3637C9.434 20.8396 8.85107 20.2362 8.37296 19.5356C8.06616 19.0882 7.80537 18.6178 7.59572 18.1167C7.38351 17.6079 7.23011 17.0837 7.11505 16.5468C7.04346 16.2144 7.02812 15.8744 7 15.5369C7 15.179 7 14.821 7 14.4631C7.02301 14.4375 7.01278 14.4068 7.01278 14.3787C7.0179 14.0412 7.06136 13.7089 7.13039 13.379C7.33749 12.4075 7.69799 11.4973 8.24001 10.6638C8.56983 10.155 8.95078 9.68456 9.38543 9.26015C9.93512 8.72579 10.5462 8.27581 11.2237 7.91275C11.9319 7.53436 12.681 7.27613 13.466 7.11505C13.7958 7.04858 14.1307 7.02812 14.4631 7C14.821 7 15.179 7 15.5369 7C15.5676 7.02301 15.6034 7.01278 15.6341 7.01278C15.9716 7.0179 16.3039 7.06392 16.6337 7.13295C17.4084 7.30169 18.1473 7.56504 18.8428 7.94855C19.6251 8.38063 20.318 8.92522 20.9214 9.58229C21.3765 10.0809 21.7677 10.6254 22.0872 11.2237C22.4656 11.9319 22.7239 12.681 22.8849 13.466C22.9514 13.7958 22.9719 14.1307 23 14.4631C23 14.821 23 15.179 23 15.5369C22.9923 15.5471 22.9872 15.5574 22.9872 15.5701ZM18.4771 20.9981C19.1624 20.5967 19.7632 20.0956 20.2796 19.4922C20.4637 19.2748 20.635 19.0473 20.791 18.8095C20.8293 18.7507 20.8319 18.7303 20.7577 18.7303C20.2771 18.7303 19.7964 18.7303 19.3132 18.7303C19.2442 18.7303 19.2339 18.7737 19.2135 18.8249C19.1266 19.0652 19.0422 19.3055 18.945 19.5407C18.72 20.0853 18.4516 20.6095 18.109 21.0901C18.0834 21.1285 18.0527 21.1617 18.0093 21.218C18.1959 21.1719 18.3365 21.0825 18.4771 20.9981ZM15.5344 21.8111C15.5344 21.8239 15.5395 21.8367 15.5446 21.8623C15.9153 21.7549 16.2349 21.5733 16.5213 21.333C17.094 20.8498 17.4851 20.2311 17.8073 19.5638C17.9249 19.3234 18.0169 19.0729 18.1141 18.8223C18.1448 18.7405 18.1218 18.7277 18.0451 18.7277C17.2397 18.7303 16.4369 18.7303 15.6315 18.7277C15.5625 18.7277 15.5344 18.7456 15.5344 18.8198C15.5344 19.8194 15.5344 20.814 15.5344 21.8111ZM15.5318 17.567C15.5318 17.6462 15.5523 17.6667 15.6315 17.6667C16.5392 17.6641 17.4468 17.6641 18.3544 17.6667C18.4286 17.6667 18.4567 17.6437 18.472 17.5721C18.6075 16.9252 18.6817 16.2707 18.7252 15.6111C18.7328 15.5088 18.6663 15.5369 18.6178 15.5369C18.1192 15.5344 17.6206 15.5369 17.1221 15.5369C16.6286 15.5369 16.1352 15.5395 15.6392 15.5344C15.5574 15.5344 15.5318 15.5548 15.5318 15.6392C15.5369 16.2809 15.5369 16.9227 15.5318 17.567ZM15.6443 14.4682C16.1377 14.4631 16.6337 14.4656 17.1272 14.4656C17.6206 14.4656 18.1167 14.4631 18.6101 14.4682C18.7073 14.4682 18.7252 14.4452 18.72 14.348C18.6817 13.7063 18.6024 13.0697 18.472 12.4382C18.4567 12.3615 18.4311 12.3333 18.3493 12.3333C17.4468 12.3359 16.5443 12.3359 15.6392 12.3333C15.5574 12.3333 15.5318 12.3538 15.5318 12.4382C15.5344 13.0773 15.5344 13.7165 15.5318 14.3557C15.5318 14.4452 15.5548 14.4682 15.6443 14.4682ZM14.4682 12.4433C14.4682 12.3512 14.4401 12.3333 14.3531 12.3333C13.4583 12.3359 12.5634 12.3359 11.6711 12.3333C11.574 12.3333 11.5459 12.364 11.5254 12.4561C11.3925 13.0901 11.3183 13.7319 11.28 14.3787C11.2723 14.4835 11.3311 14.4656 11.3873 14.4656C11.8859 14.4656 12.3845 14.4656 12.883 14.4656C13.3739 14.4656 13.8623 14.4631 14.3531 14.4682C14.435 14.4682 14.4708 14.458 14.4708 14.3608C14.4631 13.7216 14.4631 13.0825 14.4682 12.4433ZM14.4682 15.6366C14.4682 15.5523 14.4426 15.5318 14.3608 15.5318C13.8623 15.5344 13.3637 15.5344 12.8651 15.5344C12.387 15.5344 11.9115 15.5395 11.4334 15.5318C11.3106 15.5292 11.2697 15.5471 11.28 15.6878C11.3234 16.3167 11.3976 16.9406 11.5254 17.5593C11.5433 17.6437 11.574 17.6667 11.6584 17.6667C12.5558 17.6641 13.4557 17.6641 14.3531 17.6667C14.4426 17.6667 14.4656 17.6437 14.4656 17.5542C14.4631 16.915 14.4631 16.2758 14.4682 15.6366ZM12.6453 20.3768C12.9751 20.883 13.3765 21.3253 13.9032 21.6347C14.0489 21.7191 14.2074 21.783 14.3659 21.8367C14.4477 21.8648 14.4656 21.8444 14.4656 21.76C14.4631 21.2691 14.4631 20.7808 14.4631 20.2899C14.4631 19.8118 14.4605 19.3362 14.4656 18.8581C14.4656 18.7661 14.4529 18.7252 14.3429 18.7252C13.5554 18.7303 12.768 18.7303 11.9805 18.7252C11.8833 18.7252 11.8578 18.7328 11.8961 18.8428C12.0879 19.3873 12.3333 19.8987 12.6453 20.3768ZM9.22947 18.8325C9.79706 19.689 10.5181 20.3845 11.3976 20.9188C11.574 21.0262 11.753 21.1285 11.9524 21.2026C11.7197 20.8677 11.5254 20.5149 11.3388 20.1595C11.1163 19.7351 10.9476 19.2851 10.7916 18.8325C10.7661 18.7609 10.7379 18.7303 10.6587 18.7303C10.1985 18.7328 9.73826 18.7328 9.27804 18.7328C9.24736 18.7328 9.2039 18.7149 9.18345 18.7507C9.16299 18.7891 9.21157 18.807 9.22947 18.8325ZM8.09684 15.6494C8.1582 16.3193 8.32438 16.9636 8.56216 17.59C8.58517 17.6488 8.6133 17.6641 8.6721 17.6641C9.24225 17.6616 9.81496 17.6616 10.3851 17.6641C10.4541 17.6641 10.472 17.6437 10.4593 17.5746C10.3237 16.9278 10.2419 16.2733 10.2189 15.6136C10.2164 15.5267 10.1703 15.5318 10.1115 15.5318C9.79195 15.5318 9.47236 15.5318 9.15276 15.5318C8.83829 15.5318 8.52125 15.5344 8.20678 15.5292C8.11729 15.5292 8.08661 15.5446 8.09684 15.6494ZM8.56983 12.3947C8.36785 12.9291 8.21189 13.4736 8.13263 14.0412C8.11985 14.1409 8.11473 14.2458 8.09939 14.3455C8.08405 14.435 8.09684 14.4708 8.20422 14.4682C8.5187 14.4605 8.83317 14.4656 9.14765 14.4656C9.4698 14.4656 9.7945 14.4631 10.1167 14.4682C10.1908 14.4682 10.2189 14.4503 10.2215 14.3685C10.2445 13.7216 10.3237 13.0799 10.4567 12.4484C10.4771 12.3563 10.4541 12.3333 10.3621 12.3333C9.80473 12.3384 9.24736 12.3359 8.69 12.3359C8.64142 12.3359 8.5954 12.3257 8.56983 12.3947ZM11.9319 8.77948C11.9115 8.76414 11.9038 8.7846 11.891 8.79227C11.0703 9.23202 10.3365 9.78172 9.73314 10.4925C9.54394 10.7149 9.36753 10.9501 9.2039 11.1956C9.15021 11.2774 9.2039 11.2697 9.25248 11.2697C9.49025 11.2697 9.73058 11.2697 9.96836 11.2697C10.1908 11.2697 10.4107 11.2672 10.6331 11.2723C10.7226 11.2748 10.7635 11.2518 10.7967 11.1598C11.0422 10.4183 11.3643 9.71269 11.7913 9.05561C11.8399 8.98146 11.8885 8.90732 11.937 8.83317C11.9473 8.81272 11.9575 8.79738 11.9319 8.77948ZM14.348 8.16842C13.8418 8.3474 13.4276 8.65932 13.0773 9.05817C12.5302 9.68456 12.1595 10.4107 11.8833 11.1905C11.8399 11.3106 11.937 11.2697 11.9805 11.2697C12.6708 11.2723 13.3611 11.2723 14.0489 11.2723C14.1435 11.2723 14.2381 11.2646 14.3301 11.2748C14.435 11.2851 14.4682 11.2518 14.4656 11.1445C14.4605 10.6638 14.4631 10.1831 14.4631 9.70246C14.4631 9.2218 14.4605 8.74113 14.4656 8.26047C14.4708 8.14286 14.4375 8.13519 14.348 8.16842ZM15.9946 8.31416C15.8514 8.24001 15.7057 8.17354 15.5344 8.1403C15.5344 8.18888 15.5344 8.22723 15.5344 8.26558C15.5344 9.22435 15.5369 10.1806 15.5318 11.1393C15.5318 11.2493 15.565 11.2723 15.6673 11.2723C16.4497 11.2672 17.2346 11.2697 18.0169 11.2723C18.109 11.2723 18.1448 11.2723 18.1039 11.1572C17.9147 10.6203 17.6743 10.1115 17.3624 9.63854C17.0045 9.09652 16.5826 8.61841 15.9946 8.31416ZM20.7935 11.1905C20.2285 10.3391 19.5126 9.64366 18.6433 9.10419C18.4644 8.99169 18.2803 8.88686 18.086 8.79738C18.0655 8.78715 18.0451 8.78971 18.0221 8.79482C18.3365 9.21413 18.582 9.66411 18.7993 10.1294C18.9629 10.4746 19.0959 10.8325 19.216 11.1956C19.2339 11.2493 19.2646 11.2672 19.3183 11.2672C19.7939 11.2646 20.272 11.2672 20.7475 11.2672C20.8166 11.2697 20.8396 11.2595 20.7935 11.1905ZM21.9006 14.3608C21.8571 13.875 21.7677 13.3995 21.6168 12.9367C21.5606 12.7629 21.4915 12.5941 21.4378 12.4177C21.4148 12.3436 21.3765 12.3308 21.31 12.3308C21.0288 12.3333 20.7475 12.3308 20.4663 12.3308C20.1902 12.3308 19.9115 12.3333 19.6353 12.3308C19.5586 12.3308 19.5203 12.3333 19.5407 12.433C19.6737 13.0748 19.7555 13.7267 19.7785 14.3813C19.7811 14.4401 19.799 14.4631 19.8603 14.4631C20.5174 14.4605 21.1719 14.4605 21.829 14.4631C21.9262 14.4682 21.9057 14.4145 21.9006 14.3608ZM21.8162 15.5344C21.4915 15.5369 21.1694 15.5344 20.8447 15.5344C20.5251 15.5344 20.2055 15.5369 19.8859 15.5318C19.8015 15.5318 19.7811 15.5574 19.7785 15.6392C19.7555 16.2835 19.6763 16.9201 19.5433 17.5491C19.5254 17.6385 19.5407 17.6667 19.6379 17.6641C20.1953 17.659 20.7526 17.6616 21.3126 17.6616C21.3637 17.6616 21.4072 17.6667 21.4327 17.6002C21.6347 17.0709 21.7881 16.5264 21.8674 15.9639C21.8827 15.8514 21.8878 15.7338 21.9057 15.6213C21.9185 15.5446 21.8878 15.5318 21.8162 15.5344Z" fill="#030104"/>
</g>
<defs>
<clipPath id="clip0_1687_12">
<rect width="16" height="16" fill="white" transform="matrix(1 0 0 -1 7 23)"/>
</clipPath>
</defs>
</svg>
