<svg width="28" height="28" viewBox="0 0 28 28" fill="none" xmlns="http://www.w3.org/2000/svg">
<g id="Group 824">
<circle id="Ellipse 128" cx="14" cy="14" r="14" fill="#F0B41A"/>
<path id="Vector" d="M20.0785 8.07159C19.1951 7.67904 18.2844 7.34257 17.341 7.14629C16.3648 6.94441 16.6266 6.80982 16.1739 7.74073C16.0921 7.90896 16.0267 7.97065 15.8304 7.94261C14.707 7.7912 13.5836 7.76877 12.4602 7.90896C11.9531 7.97065 11.9531 7.96504 11.7295 7.48837C11.6913 7.40426 11.6422 7.32575 11.6095 7.23602C11.5386 7.03414 11.4187 6.97806 11.2114 7.02292C10.0826 7.24724 8.99192 7.59492 7.93943 8.07159C7.80855 8.12767 7.71585 8.21179 7.63405 8.33516C5.92716 10.9821 4.98919 13.8701 5.00009 17.061C5.00555 17.5377 5.011 18.0143 5.05463 18.491C5.06553 18.6088 5.0928 18.7041 5.19096 18.777C6.49976 19.7416 7.91762 20.4874 9.45546 20.9809C9.59179 21.0258 9.66814 20.9921 9.74994 20.8744C10.0281 20.4706 10.2789 20.0444 10.5134 19.6126C10.5952 19.4612 10.5788 19.3883 10.4098 19.3266C10.0444 19.192 9.68995 19.0125 9.35184 18.8107C9.2755 18.7658 9.10644 18.7378 9.15552 18.6312C9.22096 18.5022 9.34094 18.3732 9.52635 18.4125C9.58634 18.4237 9.64087 18.463 9.70086 18.4854C12.5802 19.7303 15.4541 19.7303 18.328 18.4686C18.3607 18.4518 18.3934 18.4405 18.4262 18.4237C18.6279 18.334 18.7588 18.4966 18.8297 18.6144C18.9006 18.7321 18.7152 18.7658 18.6334 18.8107C18.3007 19.0069 17.9572 19.1752 17.5973 19.3098C17.4009 19.3827 17.4009 19.4668 17.4882 19.635C17.7009 20.0276 17.9354 20.4033 18.1753 20.779C18.2953 20.9697 18.4153 21.0202 18.6388 20.9416C20.1058 20.4425 21.4746 19.736 22.7343 18.8163C22.8652 18.7209 22.9252 18.62 22.9415 18.4518C23.2469 14.7506 22.3526 11.3802 20.3457 8.30712C20.2912 8.20057 20.1985 8.12767 20.0785 8.07159ZM12.6238 14.8852C12.5202 15.7432 12.0185 16.3656 11.315 16.5226C11.2169 16.5451 11.1187 16.5507 11.0915 16.5563C10.1698 16.5563 9.47727 15.8273 9.39547 14.8515C9.31367 13.8197 10.0444 12.8888 10.966 12.8663C11.9585 12.8383 12.7602 13.8197 12.6238 14.8852ZM18.0226 16.1357C17.5373 16.6012 16.8283 16.7021 16.2612 16.3544C15.6068 15.9506 15.3287 15.317 15.3887 14.5543C15.4487 13.8028 15.7922 13.2308 16.5121 12.9504C16.6647 12.8888 16.8283 12.8607 16.9919 12.8663C17.6191 12.8831 18.0772 13.1916 18.3771 13.7468C18.8024 14.515 18.6388 15.5413 18.0226 16.1357Z" fill="#0E0E12"/>
</g>
</svg>
