<svg width="30" height="30" viewBox="0 0 30 30" fill="none" xmlns="http://www.w3.org/2000/svg">
<circle cx="15" cy="15" r="15" fill="#F0B41A"/>
<path d="M23.3077 9H6.69231C6.5087 9 6.33261 9.06848 6.20277 9.19038C6.07294 9.31228 6 9.47761 6 9.65V20.7C6 21.0448 6.14588 21.3754 6.40554 21.6192C6.66521 21.863 7.01739 22 7.38462 22H22.6154C22.9826 22 23.3348 21.863 23.5945 21.6192C23.8541 21.3754 24 21.0448 24 20.7V9.65C24 9.47761 23.9271 9.31228 23.7972 9.19038C23.6674 9.06848 23.4913 9 23.3077 9ZM12.4653 15.5L7.38462 19.8721V11.1279L12.4653 15.5ZM13.4899 16.3816L14.5284 17.2794C14.6561 17.3895 14.8232 17.4505 14.9965 17.4505C15.1699 17.4505 15.337 17.3895 15.4647 17.2794L16.5032 16.3816L21.5224 20.7H8.4724L13.4899 16.3816ZM17.5347 15.5L22.6154 11.1271V19.8729L17.5347 15.5Z" fill="#20232C"/>
</svg>
