<svg width="28" height="28" viewBox="0 0 28 28" fill="none" xmlns="http://www.w3.org/2000/svg">
<g id="Group 826">
<circle id="Ellipse 126" cx="14" cy="14" r="14" fill="#21E1EA"/>
<g id="Group 821">
<path id="Vector" d="M22.9829 11.4332C22.9662 10.6368 22.9537 9.84043 22.8035 9.05238C22.4032 6.96343 20.8392 5.46656 18.7331 5.16218C17.7822 5.02458 16.823 5.02042 15.8679 5.01208C14.3916 4.99123 12.9152 4.99957 11.443 5.02042C10.6464 5.03292 9.84986 5.0496 9.06163 5.19971C6.95551 5.59998 5.45829 7.16774 5.15802 9.28171C5.02456 10.2282 5.01622 11.1789 5.00788 12.1253C4.9912 13.5889 5.00371 15.0566 5.02039 16.5201C5.02873 17.329 5.04958 18.142 5.19972 18.9426C5.60009 21.0315 7.16404 22.5284 9.27016 22.8328C10.2294 22.9704 11.1928 22.9745 12.1562 22.9871C13.62 23.0037 15.088 22.9912 16.5519 22.9746C17.3568 22.9662 18.1617 22.9537 18.9541 22.7911C19.9801 22.5784 20.8726 22.1365 21.5941 21.3609C22.4699 20.4228 22.8285 19.2761 22.9161 18.0294C23.0079 16.6868 22.9995 15.3359 22.9787 13.9891C22.987 13.1386 22.9995 12.288 22.9829 11.4332ZM21.3814 14.0058C21.373 15.24 21.4064 16.4784 21.3313 17.7126C21.2896 18.3964 21.1937 19.0677 20.8559 19.6764C20.3304 20.6229 19.4838 21.0941 18.4411 21.2525C17.7405 21.3609 17.0315 21.3693 16.3225 21.3734C14.6335 21.3818 12.9444 21.3859 11.2595 21.3651C10.5672 21.3568 9.87071 21.3484 9.19092 21.1775C7.81047 20.8356 6.93466 19.8515 6.74699 18.4339C6.65524 17.7376 6.63021 17.0371 6.63021 16.3366C6.62187 14.5437 6.60102 12.7508 6.6469 10.962C6.66358 10.2907 6.68026 9.61527 6.88462 8.96482C7.26413 7.74314 8.11075 7.03848 9.3494 6.78831C10.1501 6.6257 10.9634 6.62987 11.7766 6.6257C13.4157 6.61319 15.0547 6.61319 16.6937 6.63404C17.3985 6.64237 18.1075 6.64654 18.804 6.82167C20.2011 7.16774 21.0728 8.13925 21.2604 9.57775C21.3772 10.4534 21.3772 11.3373 21.3814 12.2171C21.3855 12.8092 21.3814 13.4054 21.3814 14.0058Z" fill="#0E0E12"/>
<path id="Vector_2" d="M13.966 9.37696C11.4387 9.38113 9.37842 11.4784 9.37842 14.0302C9.38259 16.5528 11.4804 18.6209 14.0327 18.6167C16.5559 18.6125 18.6245 16.5111 18.6203 13.9635C18.6161 11.4409 16.5184 9.37279 13.966 9.37696ZM13.9785 16.9989C12.3103 16.9989 11.0008 15.6563 11.0008 13.9593C11.0008 12.304 12.352 10.9947 14.0578 10.9989C15.6801 10.9989 17.0063 12.354 17.0063 14.0093C17.0021 15.6813 15.6676 16.9989 13.9785 16.9989Z" fill="#0E0E12"/>
<path id="Vector_3" d="M18.8288 8.12315C18.2283 8.11481 17.7361 8.59431 17.732 9.19056C17.7278 9.77847 18.2032 10.2621 18.7954 10.2705C19.3793 10.2788 19.8756 9.79932 19.8798 9.21558C19.8881 8.6235 19.4127 8.13149 18.8288 8.12315Z" fill="#0E0E12"/>
</g>
</g>
</svg>
