<svg width="43" height="43" viewBox="0 0 43 43" fill="none" xmlns="http://www.w3.org/2000/svg">
<circle cx="21.5" cy="21.5" r="21" fill="url(#paint0_linear_2599_1319)" stroke="#EBEBEB"/>
<path d="M20.5383 29.614L10 19.0757V13.4212C10 11.3098 12.5529 10.2523 14.0459 11.7454L27.0643 24.7638L22.2142 29.614C21.7514 30.0767 21.0011 30.0767 20.5383 29.614Z" fill="white"/>
<path d="M28.1323 23.5788L32.7539 19.0757V13.3748C32.7539 11.2699 30.2147 10.2095 28.7177 11.6893L22.4442 17.8906L28.1323 23.5788Z" fill="white"/>
<path d="M10 28.0819V21.4457L16.9832 28.4289C17.7297 29.1755 17.201 30.4519 16.1453 30.4519H12.37C11.0611 30.4519 10 29.3908 10 28.0819Z" fill="white"/>
<path d="M32.7539 28.0819V21.4457L25.7707 28.4289C25.0242 29.1755 25.5529 30.4519 26.6086 30.4519H30.3839C31.6928 30.4519 32.7539 29.3908 32.7539 28.0819Z" fill="white"/>
<defs>
<linearGradient id="paint0_linear_2599_1319" x1="21.5" y1="0" x2="21.5" y2="43" gradientUnits="userSpaceOnUse">
<stop stop-color="#3345ED"/>
<stop offset="1" stop-color="#0885C3"/>
</linearGradient>
</defs>
</svg>
