<svg width="28" height="28" viewBox="0 0 28 28" fill="none" xmlns="http://www.w3.org/2000/svg">
<g id="Group 822">
<circle id="Ellipse 130" cx="14" cy="14" r="14" fill="#F0B41A"/>
<path id="Vector" d="M21.9284 17.6603C21.8021 17.3458 21.5459 17.1703 21.2609 17.0277C20.9434 16.8668 20.6367 16.6913 20.3481 16.4792C19.7961 16.0697 19.3415 15.5761 19.0384 14.9508C18.9193 14.7095 18.941 14.64 19.1538 14.4974C19.2657 14.4243 19.3775 14.3548 19.4858 14.2816C19.7744 14.0915 20.0595 13.905 20.2831 13.6308C20.7847 13.0128 20.7305 12.128 20.1533 11.6307C19.7708 11.3016 19.3234 11.2394 18.8472 11.3308C18.7317 11.3528 18.7137 11.3272 18.7209 11.2248C18.7281 11.0603 18.7209 10.8957 18.7209 10.7312C18.7173 10.7312 18.7173 10.7312 18.7137 10.7312C18.7028 10.5739 18.6956 10.4167 18.6848 10.2558C18.6054 9.03456 18.158 7.98148 17.2272 7.18802C15.8453 6.01063 14.2506 5.74736 12.544 6.22636C11.09 6.63223 10.0581 7.56464 9.54574 9.0309C9.304 9.72564 9.28235 10.4606 9.28235 11.1919C9.28235 11.3126 9.27874 11.3528 9.13082 11.3272C8.30458 11.1663 7.60102 11.5905 7.41702 12.3583C7.26909 12.9909 7.51082 13.4882 7.97626 13.8977C8.22521 14.1171 8.51746 14.278 8.79166 14.4645C9.0803 14.6619 9.09474 14.7058 8.92516 15.0276C8.46694 15.8978 7.75617 16.4975 6.90829 16.9436C6.70985 17.046 6.5078 17.1374 6.33822 17.291C6.07484 17.5323 5.95217 17.8285 6.01711 18.1905C6.09649 18.6219 6.37791 18.8925 6.7351 19.1009C7.049 19.2838 7.38454 19.4154 7.73452 19.5105C7.88966 19.5507 8.00151 19.6275 8.05924 19.792C8.25407 20.3441 8.66178 20.5964 9.22102 20.6476C9.58542 20.6805 9.95344 20.6805 10.3178 20.7281C10.8302 20.7975 11.2487 21.0645 11.6745 21.3314C12.7027 21.9676 13.8068 22.1395 14.9794 21.8908C15.6216 21.7556 16.1809 21.4411 16.722 21.0901C16.989 20.9182 17.2777 20.8122 17.588 20.75C17.9921 20.6659 18.4034 20.6915 18.8075 20.6476C19.3415 20.5891 19.7456 20.3515 19.9296 19.8213C19.9909 19.6457 20.11 19.5616 20.2759 19.5141C20.7197 19.3934 21.1455 19.2252 21.5135 18.9437C21.95 18.5963 22.1052 18.099 21.9284 17.6603ZM20.8604 18.2855C20.5321 18.483 20.1713 18.5963 19.8069 18.6951C19.7131 18.7206 19.6229 18.7499 19.5327 18.7792C19.2765 18.8633 19.143 19.0388 19.1214 19.313C19.0925 19.6311 19.024 19.7006 18.7101 19.7298C18.3565 19.7628 18.0029 19.7737 17.6493 19.8103C17.0432 19.8724 16.5092 20.1211 16.0077 20.4575C15.2283 20.9804 14.3768 21.1705 13.4496 21.0389C12.8976 20.9584 12.3997 20.7354 11.9451 20.4209C11.292 19.9712 10.5668 19.7847 9.78747 19.7591C9.60707 19.7518 9.42667 19.7408 9.24988 19.7225C9.00814 19.6969 8.90351 19.6238 8.8963 19.3898C8.88186 18.9656 8.6293 18.7974 8.27211 18.7097C7.9041 18.6183 7.5433 18.5086 7.20775 18.3221C7.0959 18.2599 6.94437 18.2014 6.94437 18.0515C6.94437 17.9016 7.09951 17.8687 7.21136 17.8102C8.2685 17.269 9.15246 16.5341 9.71892 15.4554C9.8452 15.2141 9.94622 14.9618 10.0148 14.6948C10.0833 14.4243 10.0292 14.2049 9.78747 14.0476C9.45554 13.8282 9.12721 13.6015 8.79888 13.3821C8.65817 13.2871 8.52106 13.1884 8.41643 13.0531C8.25768 12.852 8.23242 12.6435 8.34427 12.4424C8.46334 12.234 8.65817 12.1865 8.87104 12.2084C9.15968 12.2377 9.42667 12.3583 9.69366 12.4607C9.79469 12.4973 9.89571 12.5412 10.0003 12.5667C10.1807 12.6106 10.2457 12.5521 10.2349 12.362C10.2168 12.0219 10.1988 11.6819 10.1844 11.3893C10.1807 10.691 10.1844 10.0438 10.372 9.41849C10.657 8.47146 11.2595 7.77672 12.1363 7.35988C13.5001 6.71268 14.8675 6.74558 16.17 7.52442C17.1875 8.13506 17.7034 9.08209 17.7936 10.2741C17.8477 10.9579 17.8189 11.638 17.7828 12.3181C17.7684 12.5704 17.8405 12.6289 18.0787 12.5485C18.3637 12.4534 18.6343 12.3218 18.9265 12.2486C19.0745 12.2121 19.2188 12.1865 19.3703 12.223C19.6517 12.2925 19.8105 12.5814 19.7095 12.8593C19.6301 13.0787 19.4605 13.2139 19.2801 13.3383C18.9626 13.5577 18.6379 13.7624 18.3204 13.9855C17.9379 14.2524 17.8947 14.3804 18.039 14.8338C18.3529 15.8284 18.9915 16.5816 19.7997 17.1959C20.1316 17.4482 20.4924 17.6566 20.864 17.8467C20.9542 17.8943 21.0697 17.9308 21.0697 18.0515C21.0625 18.1722 20.9542 18.2307 20.8604 18.2855Z" fill="#0E0E12"/>
</g>
</svg>
