<svg width="28" height="28" viewBox="0 0 28 28" fill="none" xmlns="http://www.w3.org/2000/svg">
<g id="Group 823">
<circle id="Ellipse 129" cx="14" cy="14" r="14" fill="#F0B41A"/>
<path id="Vector" d="M17.0144 11.0858C17.0144 11.2108 17.0144 11.316 17.0144 11.4213C17.0144 13.2962 17.0276 15.1712 17.0144 17.0461C16.9945 19.8223 14.7393 22.0196 11.9549 21.9999C9.36231 21.9736 7.14672 19.9013 7.00783 17.3619C6.86233 14.6514 8.76046 12.3686 11.406 12.0594C11.8491 12.0068 12.2856 12.0331 12.7287 12.02C12.8808 12.0134 12.9469 12.0594 12.9403 12.2173C12.9337 12.9607 12.9337 13.7107 12.9403 14.4541C12.9403 14.6251 12.861 14.6449 12.7221 14.6449C12.3451 14.6514 11.9747 14.612 11.5978 14.6778C10.3081 14.9212 9.48797 16.0461 9.65332 17.3421C9.80543 18.5395 10.8967 19.4276 12.1401 19.3684C13.3835 19.3092 14.3755 18.2829 14.3755 17.0066C14.3821 14.0133 14.3755 11.02 14.3755 8.02669C14.3755 7.76354 14.3887 7.50039 14.3689 7.23724C14.3557 7.03988 14.435 7.00041 14.6136 7.00041C15.3279 7.00699 16.0488 7.01357 16.7631 7.00041C16.9483 6.99383 17.0342 7.0662 17.1202 7.21751C17.4773 7.89512 17.9271 8.50036 18.4959 9.0135C19.1506 9.599 19.9046 9.98057 20.7842 10.0924C20.9892 10.1187 21.0289 10.1779 20.9826 10.3819C20.8305 11.0661 20.6982 11.7568 20.5726 12.441C20.5395 12.6384 20.4734 12.6515 20.2948 12.6186C19.0911 12.4213 18.0131 11.9805 17.1202 11.1253C17.107 11.1187 17.0739 11.1121 17.0144 11.0858Z" fill="#0E0E12"/>
</g>
</svg>
